<svg version="1.0" xmlns="http://www.w3.org/2000/svg"
 width="100px" height="100px" viewBox="0 0 100 100">

<g transform="translate(0.000000,1080.000000) scale(0.100000,-0.100000)"
fill="#111111">
<path d="M3420 8145 c0 -101 -3 -135 -12 -135 -29 0 -116 -50 -152 -86 -92
-93 -118 -239 -64 -356 l27 -58 -67 -182 -67 -183 -48 -3 c-52 -3 -54 -1 -31
53 8 20 14 39 12 40 -12 12 -113 44 -119 38 -9 -10 -139 -326 -139 -339 0 -11
108 -59 116 -52 2 3 15 31 28 64 l24 59 52 3 c47 3 52 1 48 -15 -3 -10 -82
-228 -177 -485 l-171 -467 0 -91 c0 -74 3 -92 16 -97 14 -5 15 -16 10 -67 -4
-34 -10 -72 -12 -86 -3 -14 14 8 38 47 31 52 48 71 59 68 11 -4 37 19 80 69
l64 74 164 448 c90 247 177 484 194 527 l29 77 165 -2 166 -3 139 -380 c77
-209 163 -444 191 -522 47 -128 59 -150 116 -218 45 -54 68 -74 80 -70 13 4
28 -13 60 -67 36 -63 42 -68 37 -39 -19 108 -19 141 -2 141 14 0 16 14 16 96
0 107 23 36 -234 736 -64 174 -116 319 -116 323 0 3 23 5 52 3 l52 -3 25 -60
c14 -33 26 -62 28 -64 2 -3 108 36 121 44 2 2 -138 347 -144 354 -2 3 -109
-36 -122 -44 -1 -1 5 -18 13 -38 23 -54 20 -58 -31 -55 l-47 3 -68 184 -69
185 20 42 c45 91 44 200 -2 291 -30 59 -108 128 -169 150 l-49 18 0 132 0 133
-65 0 -65 0 0 -135z m122 -255 c81 -23 138 -102 138 -190 0 -142 -140 -238
-268 -184 -127 52 -166 204 -79 309 53 64 127 87 209 65z m12 -618 c22 -59 41
-113 44 -119 3 -10 -24 -13 -113 -13 -90 0 -116 3 -112 13 2 6 22 60 43 119
38 105 40 108 69 108 29 0 31 -4 69 -108z" fill="black"/>
<path d="M2360 6509 c-546 -61 -980 -402 -1196 -939 -162 -404 -185 -786 -73
-1210 121 -455 417 -898 780 -1167 422 -313 886 -509 1389 -588 143 -23 561
-31 729 -15 545 53 1175 265 1629 550 207 129 438 309 562 434 l44 46 -93 0
-94 0 -86 -73 c-354 -301 -717 -499 -1211 -662 -359 -118 -622 -164 -980 -172
-340 -7 -550 18 -846 103 -504 144 -1023 465 -1297 804 -203 252 -363 588
-426 897 -144 704 174 1451 737 1732 158 79 332 121 536 128 l148 6 28 61 c24
54 25 62 11 68 -22 9 -199 7 -291 -3z"/>
<path d="M3247 6303 c-2 -4 -12 -32 -22 -62 l-18 -55 39 -30 c66 -50 178 -168
217 -229 87 -131 122 -256 121 -422 -2 -195 -56 -345 -164 -455 -99 -102 -261
-154 -409 -132 -117 17 -177 40 -232 90 -95 85 -139 196 -139 347 0 52 4 104
9 118 8 21 4 26 -50 56 l-59 32 -10 -27 c-23 -59 -32 -175 -20 -262 33 -247
164 -409 381 -468 90 -25 282 -25 363 0 244 73 388 245 447 531 17 81 20 122
16 220 -9 198 -68 356 -191 512 -83 104 -266 259 -279 236z"/>
<path d="M4000 5060 l0 -400 68 0 67 1 190 286 190 286 3 -287 2 -286 70 0 70
0 0 400 0 400 -67 0 -68 -1 -190 -286 -190 -286 -3 287 -2 286 -70 0 -70 0 0
-400z"/>
<path d="M6600 5265 c-61 -19 -123 -74 -154 -137 -23 -46 -26 -64 -26 -158 0
-100 2 -111 31 -169 54 -108 155 -159 295 -148 109 8 183 55 219 140 l15 37
-59 0 c-46 0 -63 -4 -73 -18 -28 -39 -61 -52 -129 -52 -52 0 -73 5 -99 23 -44
29 -68 64 -76 110 l-6 37 227 0 228 0 -5 83 c-7 105 -38 173 -102 216 -73 50
-191 65 -286 36z m195 -109 c40 -17 64 -50 72 -100 l6 -36 -168 0 -167 0 6 32
c15 76 71 118 159 118 32 0 73 -6 92 -14z"/>
<path d="M7985 5271 c-74 -19 -135 -72 -176 -151 -20 -39 -23 -59 -23 -150 1
-115 15 -165 69 -228 112 -133 396 -116 471 29 26 51 20 59 -41 59 -50 0 -58
-3 -84 -32 -26 -29 -35 -33 -99 -36 -59 -4 -77 -1 -111 19 -42 23 -81 84 -81
127 0 22 0 22 226 22 l227 0 -6 79 c-10 127 -44 190 -127 235 -42 23 -67 29
-134 32 -44 2 -94 0 -111 -5z m181 -117 c21 -10 40 -31 54 -58 37 -78 41 -76
-145 -76 -164 0 -165 0 -165 23 0 32 35 84 72 107 41 25 135 27 184 4z"/>
<path d="M8721 5267 c-19 -6 -54 -30 -78 -52 l-43 -42 0 49 0 48 -55 0 c-30 0
-55 -3 -55 -7 -2 -27 -3 -564 -1 -685 l1 -148 60 0 60 0 0 160 0 161 34 -35
c49 -48 112 -70 184 -63 101 9 162 51 204 142 20 44 23 66 23 175 0 116 -2
129 -28 181 -29 60 -78 102 -138 119 -43 13 -124 11 -168 -3z m140 -120 c53
-35 74 -87 73 -182 0 -136 -54 -205 -160 -205 -56 0 -102 24 -138 73 -17 23
-21 45 -24 125 -2 86 0 101 20 136 13 21 39 47 58 57 50 27 128 25 171 -4z"/>
<path d="M4850 4965 l0 -305 60 0 59 0 3 128 3 127 143 3 142 3 0 -131 0 -130
60 0 60 0 0 305 0 305 -60 0 -60 0 0 -125 0 -126 -142 3 -143 3 -3 123 -3 122
-59 0 -60 0 0 -305z"/>
<path d="M5510 5262 c0 -4 19 -35 43 -67 24 -33 68 -96 99 -141 l57 -81 -52
-74 c-29 -41 -79 -111 -111 -156 l-57 -83 69 0 70 0 89 130 c82 122 90 130
121 130 l32 0 0 -130 0 -130 60 0 60 0 0 130 0 130 30 0 c27 0 38 -12 117
-130 l87 -130 68 0 c38 0 68 3 68 8 0 4 -48 75 -105 157 -58 83 -103 155 -101
161 3 6 47 70 100 142 53 72 96 134 96 137 0 3 -28 5 -63 5 l-62 0 -88 -125
c-79 -112 -91 -125 -118 -125 l-29 0 0 125 0 125 -60 0 -60 0 0 -125 0 -125
-32 0 c-31 1 -39 9 -117 125 l-85 125 -63 0 c-35 0 -63 -4 -63 -8z"/>
<path d="M7120 4965 l0 -305 60 0 60 0 0 130 0 130 145 0 145 0 0 -130 0 -130
60 0 60 0 0 305 0 305 -60 0 -60 0 0 -125 0 -126 -142 3 -143 3 -3 123 -3 122
-59 0 -60 0 0 -305z"/>
<path d="M9190 4965 l0 -305 135 0 c169 0 226 12 275 56 90 81 75 241 -28 301
-39 23 -59 27 -153 31 l-109 5 0 108 0 109 -60 0 -60 0 0 -305z m282 -25 c44
-13 58 -34 58 -89 0 -53 -29 -81 -84 -82 -23 -1 -60 -2 -83 -3 -38 -1 -43 1
-48 24 -6 28 -5 141 2 153 6 11 112 9 155 -3z"/>
<path d="M9740 4965 l0 -305 60 0 60 0 0 305 0 305 -60 0 -60 0 0 -305z"/>
<path d="M4105 4356 c-27 -12 -67 -41 -87 -64 -60 -66 -71 -102 -71 -222 -1
-88 3 -114 22 -157 26 -59 81 -114 138 -139 48 -21 174 -23 227 -5 51 18 115
76 137 126 29 62 27 65 -43 65 -60 -1 -64 -2 -83 -33 -28 -45 -79 -69 -134
-64 -94 10 -136 75 -136 212 0 75 4 96 22 125 30 48 75 72 134 72 56 0 89 -18
115 -62 17 -28 22 -30 81 -30 l63 0 -6 28 c-17 68 -61 118 -134 151 -66 30
-178 29 -245 -3z"/>
<path d="M6425 4367 c-132 -53 -193 -161 -183 -325 8 -130 67 -226 167 -270
49 -21 183 -21 232 1 71 32 120 88 143 165 7 21 5 22 -56 22 -60 -1 -64 -2
-83 -33 -28 -45 -79 -69 -134 -64 -91 10 -133 70 -139 196 -3 75 0 92 20 131
29 56 73 82 138 82 58 0 93 -19 115 -62 15 -29 18 -30 81 -30 63 0 65 1 58 23
-22 71 -60 119 -119 150 -49 25 -192 34 -240 14z"/>
<path d="M7726 4360 c-60 -23 -119 -79 -149 -140 -18 -37 -22 -62 -22 -145 0
-153 45 -239 152 -291 47 -23 69 -28 137 -28 125 0 205 43 264 144 25 42 27
53 27 170 0 118 -1 127 -27 172 -35 58 -88 103 -147 123 -62 21 -174 19 -235
-5z m208 -109 c67 -37 99 -137 78 -238 -19 -94 -65 -140 -147 -149 -68 -7
-131 25 -159 81 -25 49 -33 150 -16 209 29 104 148 151 244 97z"/>
<path d="M4610 4071 l0 -299 60 -4 60 -3 0 205 c0 153 3 201 11 193 7 -7 44
-69 84 -140 l72 -128 46 -3 45 -3 81 143 81 143 0 -202 c0 -112 3 -203 8 -204
4 0 32 -1 62 -2 l55 -2 3 303 2 303 -71 -3 -71 -3 -92 -167 c-50 -91 -93 -169
-96 -171 -3 -3 -48 73 -99 169 l-95 174 -73 0 -73 0 0 -299z"/>
<path d="M5440 4070 l0 -300 28 -1 c107 -4 276 1 309 10 87 24 127 80 127 182
0 55 -4 74 -26 106 -39 59 -84 77 -208 83 l-105 5 -3 108 -3 107 -59 0 -60 0
0 -300z m321 -49 c11 -14 19 -39 19 -61 0 -22 -8 -47 -19 -61 -17 -21 -29 -24
-110 -27 l-91 -4 0 92 0 92 91 -4 c81 -3 93 -6 110 -27z"/>
<path d="M5990 4068 l0 -303 60 0 60 0 0 303 0 302 -60 0 -60 0 0 -302z"/>
<path d="M6970 4273 c0 -139 -17 -318 -32 -351 -7 -15 -28 -34 -45 -42 -31
-14 -33 -18 -33 -72 0 -57 0 -58 29 -58 39 0 92 19 118 43 49 44 82 201 83
395 l0 72 105 0 105 0 0 -248 0 -248 60 1 60 0 0 303 0 302 -225 0 -225 0 0
-97z"/>
<path d="M8270 4071 c0 -230 3 -300 13 -303 6 -3 93 -4 192 -3 159 1 185 4
227 23 75 33 113 114 89 192 -10 35 -52 82 -83 93 -9 3 -4 11 14 26 68 55 70
161 3 220 -50 44 -90 51 -282 51 l-173 0 0 -299z m359 175 c26 -24 27 -66 2
-97 -18 -22 -28 -24 -125 -27 l-106 -4 0 77 0 77 104 -4 c85 -2 108 -6 125
-22z m-17 -226 c42 -12 58 -34 58 -77 0 -60 -16 -68 -149 -71 l-121 -4 0 81 0
81 88 0 c48 0 104 -5 124 -10z"/>
</g>
</svg>
