<svg version="1.0" xmlns="http://www.w3.org/2000/svg" viewBox="0 0 600 600"
 preserveAspectRatio="xMidYMid meet">

<g transform="translate(0.000000,600.000000) scale(0.100000,-0.100000)"
fill="white" stroke="none">
<path d="M1900 4526 c0 -69 -2 -75 -22 -82 -94 -29 -144 -143 -104 -239 14
-33 13 -40 -22 -135 -35 -93 -39 -100 -64 -100 -31 0 -33 3 -18 30 8 15 4 20
-21 30 -17 8 -33 9 -38 4 -4 -5 -24 -49 -44 -97 l-37 -88 33 -14 c32 -14 32
-14 47 20 12 28 21 35 43 35 15 0 27 -4 27 -8 0 -4 -43 -124 -95 -265 -77
-209 -95 -268 -95 -312 0 -31 5 -55 10 -55 6 0 8 -17 4 -42 l-6 -43 21 33 c11
17 26 32 33 33 7 0 27 17 44 37 24 28 60 113 140 330 l107 293 95 -3 94 -3
104 -285 c104 -282 134 -343 182 -365 12 -5 27 -22 33 -37 6 -16 14 -30 18
-32 3 -2 7 42 9 98 l2 101 -95 258 c-52 142 -95 261 -95 263 0 2 13 4 28 4 23
0 32 -7 45 -35 l17 -36 31 16 c17 9 28 22 26 28 -3 7 -20 49 -38 95 -17 45
-36 82 -40 82 -4 0 -19 -4 -34 -10 -21 -8 -24 -14 -19 -36 6 -23 4 -25 -22
-22 -27 3 -31 11 -65 103 -34 93 -35 102 -21 129 9 19 13 49 10 87 -5 69 -38
118 -98 146 l-39 18 -1 73 0 72 -35 0 -35 0 0 -74z m91 -153 c97 -57 57 -203
-56 -203 -100 0 -145 108 -77 184 35 38 88 46 133 19z m-14 -338 c13 -32 23
-61 23 -62 0 -2 -29 -3 -65 -3 l-65 0 19 48 c10 26 21 55 24 65 13 34 40 14
64 -48z"/>
<path d="M1268 3610 c-268 -46 -491 -221 -604 -475 -73 -166 -100 -309 -91
-489 11 -242 103 -472 272 -683 76 -95 158 -167 277 -245 232 -152 446 -234
709 -273 476 -69 1079 110 1489 442 41 34 88 75 104 92 l30 31 -50 0 c-45 0
-55 -5 -124 -62 -181 -148 -380 -256 -626 -337 -398 -133 -744 -143 -1084 -31
-256 83 -520 249 -651 406 -151 182 -237 372 -270 594 -43 297 88 651 303 816
114 88 303 154 445 154 48 0 54 3 68 30 8 16 15 31 15 35 0 8 -157 4 -212 -5z"/>
<path d="M1796 3484 c-12 -32 -5 -47 58 -108 87 -86 128 -170 134 -278 10
-164 -43 -283 -152 -341 -34 -18 -57 -22 -131 -22 -98 1 -130 12 -177 62 -44
46 -62 99 -61 186 1 76 0 78 -28 92 l-28 15 -12 -42 c-15 -58 -4 -161 25 -223
32 -70 85 -119 153 -145 83 -31 215 -25 290 13 106 54 170 154 193 298 28 172
-47 355 -191 469 -56 44 -64 47 -73 24z"/>
<path d="M2220 2810 l0 -220 39 0 38 0 104 157 104 156 3 -156 3 -157 39 0 40
0 0 220 0 220 -39 0 -38 0 -104 -157 -104 -156 -3 156 -3 157 -39 0 -40 0 0
-220z"/>
<path d="M2694 2917 c-2 -7 -3 -82 -2 -167 l3 -155 33 -3 32 -3 0 70 0 71 80
0 80 0 0 -70 0 -70 35 0 35 0 -2 168 -3 167 -30 0 -30 0 -3 -67 -3 -68 -79 0
-80 0 0 70 0 70 -30 0 c-17 0 -33 -6 -36 -13z"/>
<path d="M3070 2919 c0 -6 23 -43 51 -84 l51 -73 -56 -80 c-31 -44 -56 -82
-56 -86 0 -3 15 -6 33 -6 30 0 38 7 81 70 31 45 55 70 67 70 17 0 19 -8 19
-70 l0 -70 35 0 35 0 0 70 c0 93 19 94 80 2 41 -61 49 -67 83 -70 20 -2 37 0
37 3 0 4 -25 42 -55 85 -30 43 -55 82 -55 87 0 5 22 39 50 77 27 37 47 72 44
77 -3 5 -16 9 -29 9 -19 0 -35 -16 -72 -70 -63 -92 -81 -92 -85 -2 l-3 67 -30
0 -30 0 -3 -67 c-4 -91 -22 -90 -85 2 -41 60 -52 70 -78 70 -16 0 -29 -5 -29
-11z"/>
<path d="M3655 2921 c-84 -35 -118 -181 -62 -272 48 -79 206 -85 264 -10 7 9
13 22 13 29 0 17 -55 15 -70 -3 -18 -22 -76 -29 -111 -14 -26 10 -59 57 -59
84 0 3 56 5 125 5 l125 0 0 45 c0 93 -55 145 -150 144 -30 0 -64 -4 -75 -8z
m144 -77 c38 -49 30 -54 -75 -54 -94 0 -95 0 -89 23 11 38 43 57 95 57 41 0
52 -4 69 -26z"/>
<path d="M3955 2908 c-3 -13 -4 -88 -3 -168 l3 -145 33 -3 32 -3 0 70 0 71 80
0 79 0 3 -67 3 -68 33 -3 32 -3 -2 168 -3 168 -30 0 -30 0 -3 -67 -3 -68 -79
0 -80 0 0 70 0 70 -30 0 c-22 0 -31 -5 -35 -22z"/>
<path d="M4403 2914 c-51 -25 -77 -76 -77 -148 1 -118 57 -179 165 -179 71 0
138 38 139 81 0 17 -55 15 -70 -3 -18 -21 -76 -29 -111 -15 -27 12 -59 54 -59
80 0 6 44 10 125 10 l125 0 0 43 c0 57 -27 108 -70 129 -44 22 -124 23 -167 2z
m149 -61 c9 -10 19 -28 22 -40 7 -23 6 -23 -88 -23 -53 0 -96 2 -96 5 0 14 31
64 42 68 32 13 105 6 120 -10z"/>
<path d="M4715 2918 c-3 -7 -4 -112 -3 -233 l3 -220 33 -3 32 -3 0 85 c0 47 2
86 5 86 3 0 19 -10 35 -22 36 -27 107 -29 145 -4 52 34 66 72 63 168 -3 83 -5
89 -35 120 -27 27 -41 32 -90 36 -52 4 -62 1 -90 -22 l-32 -27 -3 23 c-2 17
-11 24 -31 26 -16 2 -29 -2 -32 -10z m229 -81 c16 -22 21 -42 20 -85 -2 -49
-5 -59 -33 -84 -69 -62 -151 -12 -151 92 0 76 33 111 99 107 35 -2 48 -8 65
-30z"/>
<path d="M5110 2760 l0 -170 80 0 c125 0 172 29 172 105 0 77 -23 97 -122 105
l-65 5 -3 63 c-3 61 -3 62 -32 62 l-30 0 0 -170z m176 -35 c14 -21 15 -31 6
-50 -10 -22 -18 -25 -67 -25 l-55 0 0 43 c0 24 3 47 7 50 3 4 26 7 49 7 36 0
47 -5 60 -25z"/>
<path d="M5417 2924 c-4 -4 -7 -81 -7 -171 l0 -163 35 0 35 0 -2 168 -3 167
-25 3 c-14 2 -29 0 -33 -4z"/>
<path d="M2262 2410 c-93 -57 -93 -243 0 -300 44 -27 132 -27 172 -1 30 20 55
55 56 79 0 23 -61 14 -81 -12 -58 -73 -149 -17 -149 91 0 96 106 147 152 73
14 -21 78 -29 78 -10 0 25 -32 71 -60 85 -42 22 -128 19 -168 -5z"/>
<path d="M2565 2418 c-3 -8 -4 -83 -3 -168 l3 -155 32 -3 32 -3 3 113 3 113
44 -77 c35 -61 50 -78 68 -78 17 0 32 17 67 78 25 42 46 73 47 67 1 -5 2 -55
3 -110 l1 -100 33 -3 32 -3 0 171 0 171 -37 -3 c-37 -3 -40 -6 -88 -95 -27
-51 -53 -93 -56 -93 -3 0 -28 42 -56 93 -48 88 -52 92 -87 95 -24 2 -38 -2
-41 -10z"/>
<path d="M3020 2260 l0 -170 80 0 c126 0 180 33 180 112 0 67 -59 107 -157
108 l-33 0 0 60 0 60 -35 0 -35 0 0 -170z m171 -20 c22 -12 26 -59 7 -78 -7
-7 -34 -12 -60 -12 l-48 0 0 50 0 50 41 0 c22 0 49 -5 60 -10z"/>
<path d="M3330 2260 l0 -171 32 3 32 3 1 165 0 165 -32 3 -33 3 0 -171z"/>
<path d="M3542 2410 c-51 -31 -72 -75 -72 -148 0 -71 15 -108 60 -146 27 -22
41 -26 96 -26 59 0 67 3 98 33 19 17 37 42 41 55 6 19 3 22 -25 22 -21 0 -38
-8 -54 -27 -18 -20 -33 -27 -60 -27 -56 0 -79 29 -84 107 -4 56 -1 67 21 92
34 40 90 41 123 2 16 -19 33 -27 54 -27 28 0 31 3 25 23 -4 12 -22 37 -41 55
-30 28 -40 32 -91 32 -40 0 -68 -6 -91 -20z"/>
<path d="M3870 2333 c0 -115 -13 -173 -41 -180 -13 -4 -19 -14 -19 -34 0 -26
3 -29 33 -29 61 0 83 46 94 193 l6 88 56 -3 56 -3 3 -137 3 -138 29 0 30 0 0
170 0 170 -125 0 -125 0 0 -97z"/>
<path d="M4272 2410 c-51 -31 -72 -75 -72 -150 0 -111 56 -170 160 -170 104 0
160 59 160 170 0 75 -21 119 -72 150 -45 27 -131 27 -176 0z m123 -44 c42 -18
57 -45 57 -107 -1 -60 -15 -87 -55 -104 -73 -31 -127 13 -127 102 0 66 12 90
53 108 40 18 32 17 72 1z"/>
<path d="M4600 2260 l0 -172 113 4 c119 4 147 13 166 55 18 38 13 63 -18 93
-28 29 -28 29 -9 47 29 26 21 90 -15 117 -24 18 -46 22 -133 24 l-104 4 0
-172z m200 90 c8 -14 8 -26 0 -40 -10 -18 -19 -21 -73 -18 -56 3 -62 5 -65 26
-7 44 3 52 67 52 50 0 62 -3 71 -20z m-12 -116 c27 -8 39 -48 22 -70 -10 -11
-29 -14 -79 -12 -71 3 -80 12 -67 64 6 21 12 24 54 24 26 0 57 -3 70 -6z"/>
</g>
</svg>
