<svg viewBox="0 0 200 200" xmlns="http://www.w3.org/2000/svg">
  <path id="curve" stroke="none" fill="none" d="M39.5,-67.1C48.9,-63.1,52.4,-47.7,55.8,-34.6C59.2,-21.5,62.6,-10.8,66.4,2.2C70.1,15.1,74.4,30.3,66.9,36.4C59.5,42.6,40.4,39.8,27.3,38.2C14.2,36.7,7.1,36.5,-2,40C-11.2,43.6,-22.4,50.9,-30.1,49.3C-37.9,47.8,-42.1,37.2,-48.7,27.5C-55.4,17.8,-64.4,8.9,-65.4,-0.6C-66.4,-10,-59.2,-20,-50.6,-26.3C-41.9,-32.6,-31.8,-35.1,-23.1,-39.5C-14.5,-43.8,-7.2,-50,3.9,-56.9C15.1,-63.7,30.2,-71.1,39.5,-67.1Z" transform="translate(100 100)" />
  <text class="main-logo__text">
    <textPath class="main-logo__text-path" href="#curve">
    инженеры смыслов инженеры смыслов инженеры смыслов инженеры смыслов инженеры смыслов инженеры смыслов инженеры смыслов инженеры смыслов 
    </textPath>
  </text>
</svg>